<svg xmlns="http://www.w3.org/2000/svg" width="32" height="32" viewBox="0 0 32 32"><defs><radialGradient id="b" cx="69.978%" cy="9.49%" r="103.202%" fx="69.978%" fy="9.49%" gradientTransform="matrix(.2909 .87705 -.95513 .26622 .587 -.544)"><stop offset="0%" stop-color="#FFC600"/><stop offset="100%" stop-color="#FF9A00"/></radialGradient><radialGradient id="c" cx=".855%" cy="91.968%" r="76.253%" fx=".855%" fy="91.968%" gradientTransform="matrix(.78415 -.55038 .51603 .8335 -.473 .158)"><stop offset="0%" stop-color="#FFCF27"/><stop offset="100%" stop-color="#FF9A00"/></radialGradient><linearGradient id="a" x1="1.073%" x2="65.276%" y1="18.248%" y2="39.407%"><stop offset="0%" stop-color="#FFCB25"/><stop offset="100%" stop-color="#E17700"/></linearGradient><linearGradient id="d" x1="64.818%" x2="25.192%" y1="89.475%" y2="78.754%"><stop offset="0%" stop-color="#FC0"/><stop offset="100%" stop-color="#FF9D00"/></linearGradient></defs><g fill="none" transform="translate(5 3.5)"><path fill="url(#a)" d="M22,13 L11,25 L8.29986114,13.6883768 C8.29716904,13.678065 8.29580754,13.6674721 8.29580754,13.6568385 C8.29580754,13.5854914 8.35578715,13.5276532 8.42977576,13.5276532 L22,13 Z"/><path fill="url(#b)" fill-rule="evenodd" d="M0,13 L6.93161674,13.5003063 C6.99252921,13.500988 7.04557722,13.5429501 7.06148244,13.6030327 L11,25 L0,13 Z"/><path fill="url(#c)" fill-rule="evenodd" d="M11,0 L22,13 L8.29580754,12.5 C8.21808481,12.4985648 8.15626225,12.4354941 8.15769763,12.3591278 C8.15792661,12.3484827 8.15938066,12.3378962 8.16205625,12.3275789 L11,0 Z"/><path fill="url(#d)" d="M11,0 L7.06104407,12.4056399 C7.04668227,12.4601415 6.999724,12.4984575 6.94540085,12.5 L0,13 L11,0 Z"/></g></svg>